[img]http://img848.imageshack.us/img848/9964/postervv.jpg[/img]
[code]
The Lincoln Lawyer TS READNFO XViD - IMAGiNE

Ripper ...........: IMAGiNE           IMDB Rating.......: 7.5/10                            
Video Codec.......: XVID              Release Date......: 18/04/11
Audio Codec.......: MP3               Theatre Date......: 18/03/11
Audio Bitrate.....: 128               Runtime.......: 1h 45mn
Subtitles.........: NIL               Language..........: ENGLISH
Resolution......: 720 x 304           IMDb URL..........: http://www.imdb.com/title/tt1189340/


DETAILS:

Video
ID                               : 0
Format                           : MPEG-4 Visual
Format profile                   : Advanced Simple@L5
Format settings, BVOP            : 2
Format settings, QPel            : No
Format settings, GMC             : No warppoints
Format settings, Matrix          : Default (MPEG)
Muxing mode                      : Packed bitstream
Codec ID                         : XVID
Codec ID/Hint                    : XviD
Duration                         : 1h 45mn
Bit rate                         : 1 726 Kbps
Width                            : 720 pixels
Height                           : 304 pixels
Display aspect ratio             : 2.35:1
Frame rate                       : 25.000 fps
Color space                      : YUV
Chroma subsampling               : 4:2:0
Bit depth                        : 8 bits
Scan type                        : Progressive
Compression mode                 : Lossy
Bits/(Pixel*Frame)               : 0.315
Stream size                      : 1.28 GiB (93%)
Writing library                  : XviD 61

Audio
ID                               : 1
Format                           : MPEG Audio
Format version                   : Version 1
Format profile                   : Layer 3
Mode                             : Joint stereo
Mode extension                   : MS Stereo
Codec ID                         : 55
Codec ID/Hint                    : MP3
Duration                         : 1h 45mn
Bit rate mode                    : Constant
Bit rate                         : 128 Kbps
Channel(s)                       : 2 channels
Sampling rate                    : 44.1 KHz
Compression mode                 : Lossy
Stream size                      : 97.0 MiB (7%)
Alignment                        : Split accross interleaves
Interleave, duration             : 40 ms (1.00 video frame)
Interleave, preload duration     : 500 ms

SOURCES:
VIDEO:........ Linkolyn.dly.Advokata.2011.D.CAMRip Thanx 
AUDIO:........ Thanx Matey 

NOTES:
IMAGiNE bringing you another release..........
The Lincoln Lawyer TS.......

Now we arent quite clear on who provided the video,but it was not a bad source to begin with.....

First we made our usual script to handle sharpen,brightness, crop resize and so on.....

Now the video had some color change issues so some special care was put into leveling out the colors without throwing everything out of balance....

Now as for the audio, the LiNE is very good,BUT unfortunatly it was missing the last 3 minutes So we kept the original russian audio and hardcoded subtitles for the few lines of conversation at teh end that needed them.....
Anyhow overall very nice TS here.....
Enjoy Folks 
[/code]
Screens:
[img]http://img96.imageshack.us/img96/4405/70785057.jpg[/img]
[img]http://img84.imageshack.us/img84/5919/81137870.jpg[/img]
[img]http://img836.imageshack.us/img836/6527/54815855.jpg[/img]
[img]http://img834.imageshack.us/img834/803/67865772.jpg[/img]
[img]http://img685.imageshack.us/img685/5562/21905101.jpg[/img]